<svg width="24" height="18" viewBox="0 0 24 18" fill="none" xmlns="http://www.w3.org/2000/svg">
<path d="M20.625 7.875H13.125V0.375C13.125 0.1875 12.9375 0 12.75 0H11.25C11.0156 0 10.875 0.1875 10.875 0.375V7.875H3.375C3.14062 7.875 3 8.0625 3 8.25V9.75C3 9.98438 3.14062 10.125 3.375 10.125H10.875V17.625C10.875 17.8594 11.0156 18 11.25 18H12.75C12.9375 18 13.125 17.8594 13.125 17.625V10.125H20.625C20.8125 10.125 21 9.98438 21 9.75V8.25C21 8.0625 20.8125 7.875 20.625 7.875Z" fill="#07B0FB"/>
</svg>
